<?xml version="1.0" standalone="no"?>
<!DOCTYPE svg PUBLIC "-//W3C//DTD SVG 20010904//EN"
 "http://www.w3.org/TR/2001/REC-SVG-20010904/DTD/svg10.dtd">
<svg version="1.0" xmlns="http://www.w3.org/2000/svg"
 width="4000.000000pt" height="2250.000000pt" viewBox="0 0 4000.000000 2250.000000"
 preserveAspectRatio="xMidYMid meet">

<g transform="translate(0.000000,2250.000000) scale(0.100000,-0.100000)"
fill="#000000" stroke="none">
<path d="M8391 14065 c0 -5 3 -16 8 -23 7 -11 9 -10 14 3 4 9 3 14 -2 10 -5
-3 -12 1 -14 7 -3 7 -6 9 -6 3z"/>
<path d="M9954 14029 c-16 -18 -31 -60 -16 -44 4 4 8 11 8 16 1 5 2 12 3 15 0
4 9 0 19 -7 9 -7 14 -9 10 -5 -4 5 -3 15 3 22 18 21 -7 25 -27 3z"/>
<path d="M8317 14021 c6 -7 9 -19 7 -26 -7 -17 13 -29 22 -14 5 8 3 9 -6 4
-10 -6 -12 -4 -7 8 3 9 -1 21 -11 28 -14 11 -15 11 -5 0z"/>
<path d="M10050 14027 c0 -2 6 -10 14 -16 11 -9 16 -9 22 1 4 7 4 10 -1 6 -4
-4 -14 -3 -22 3 -7 6 -13 9 -13 6z"/>
<path d="M10100 13911 c0 -7 -5 -9 -12 -5 -7 5 -8 3 -3 -5 5 -9 10 -10 18 -2
6 6 8 14 4 18 -4 3 -7 1 -7 -6z"/>
<path d="M8305 13891 c-3 -5 -2 -12 3 -15 5 -3 9 1 9 9 0 17 -3 19 -12 6z"/>
<path d="M9180 13823 c-19 -20 -29 -33 -22 -29 19 12 8 -71 -13 -94 -12 -13
-13 -20 -5 -25 8 -5 5 -14 -10 -30 -14 -15 -18 -25 -11 -30 13 -7 5 -50 -15
-81 -8 -14 -9 -25 -3 -31 6 -6 2 -16 -11 -28 -22 -19 -28 -41 -8 -29 6 4 1
-10 -12 -31 -21 -34 -22 -38 -6 -32 18 7 18 6 2 -18 -9 -14 -14 -30 -10 -36 3
-6 -1 -18 -10 -28 -9 -10 -14 -25 -11 -33 3 -8 -3 -23 -15 -33 -15 -13 -17
-21 -9 -31 7 -9 7 -19 -1 -35 -8 -14 -8 -19 -1 -15 19 12 12 -10 -9 -29 -14
-13 -17 -22 -10 -30 7 -8 4 -17 -10 -30 -11 -10 -16 -23 -12 -29 14 -21 9 -61
-10 -82 -13 -15 -16 -24 -8 -29 8 -5 8 -10 0 -20 -8 -10 -8 -15 0 -20 8 -5 8
-11 -1 -21 -8 -10 -8 -18 0 -27 6 -9 7 -17 1 -23 -6 -6 2 -21 20 -41 30 -32
39 -50 19 -37 -7 4 -7 -1 1 -15 8 -16 8 -26 1 -35 -8 -9 -5 -19 13 -35 19 -18
25 -19 34 -8 7 8 8 17 4 21 -13 14 -9 54 5 49 11 -4 11 0 3 21 -6 16 -6 25 -1
21 5 -3 12 -1 15 4 4 5 1 13 -5 16 -7 5 -3 15 11 30 16 17 18 25 9 30 -8 6
-10 4 -4 -5 5 -9 4 -11 -3 -6 -9 5 -9 13 0 29 7 12 11 27 9 32 -1 6 1 7 5 3 4
-4 20 4 37 18 20 17 33 22 41 15 9 -7 16 -7 24 1 9 9 17 7 33 -8 13 -10 19
-14 16 -7 -13 21 10 23 28 3 13 -14 22 -17 30 -10 20 17 43 -20 40 -62 -2 -26
2 -41 16 -54 12 -10 16 -21 10 -28 -10 -12 -8 -52 2 -62 13 -13 8 -46 -5 -38
-7 4 -3 -3 8 -16 12 -12 27 -19 33 -16 17 11 2 28 -18 21 -9 -3 -1 6 17 21 21
17 31 32 27 42 -3 8 2 23 10 32 12 14 13 20 4 26 -8 5 -10 3 -4 -6 5 -9 4 -11
-4 -6 -9 6 -8 14 4 32 9 14 13 29 10 35 -4 5 -1 17 7 26 20 24 18 70 -3 89
-14 12 -16 20 -8 30 7 9 5 20 -8 41 -17 27 -17 28 1 13 18 -14 19 -14 8 7 -7
12 -17 25 -23 28 -7 5 -7 11 0 19 8 9 5 18 -9 31 -15 14 -17 21 -8 32 8 10 6
19 -11 37 -15 16 -19 26 -11 31 8 5 8 11 1 19 -6 7 -7 16 -3 20 4 4 1 6 -7 4
-17 -4 -25 58 -9 68 5 3 2 14 -8 25 -9 10 -14 25 -11 33 4 9 2 18 -4 22 -6 3
-8 13 -5 21 3 8 2 11 -3 8 -5 -3 -12 -1 -16 5 -3 5 -1 10 6 10 8 0 8 4 -1 15
-7 8 -9 22 -6 31 6 15 4 15 -10 3 -15 -12 -16 -12 -10 8 4 12 2 24 -4 28 -8 5
-8 11 1 21 10 12 7 19 -10 38 -17 18 -19 26 -10 31 7 5 10 4 5 -3 -3 -6 -2
-13 3 -16 14 -9 8 16 -12 44 -22 32 -22 46 1 29 9 -7 7 -2 -5 12 -18 19 -20
28 -11 37 9 9 5 19 -18 43 -16 18 -23 29 -16 25 18 -11 15 14 -5 36 -13 15
-14 18 -2 15 8 -2 11 -2 6 0 -4 3 -5 9 -1 14 11 19 -3 8 -36 -28z"/>
<path d="M9605 13619 c-4 -6 -5 -12 -2 -15 2 -3 7 2 10 11 7 17 1 20 -8 4z"/>
<path d="M10063 13587 c0 -8 6 -14 14 -14 9 0 10 4 2 14 -6 7 -12 13 -14 13
-1 0 -2 -6 -2 -13z"/>
<path d="M10066 13552 c-3 -5 1 -15 8 -21 11 -10 14 -9 12 3 -3 21 -13 29 -20
18z"/>
<path d="M9561 13545 c0 -5 3 -16 8 -23 7 -11 9 -10 14 3 4 9 3 14 -2 10 -5
-3 -12 1 -14 7 -3 7 -6 9 -6 3z"/>
<path d="M9580 13431 c0 -11 4 -22 9 -25 4 -3 6 6 3 19 -5 30 -12 33 -12 6z"/>
<path d="M10054 13393 c2 -10 6 -17 10 -16 15 3 16 11 2 22 -12 10 -14 9 -12
-6z"/>
<path d="M7915 13330 c-4 -6 -2 -17 5 -25 8 -10 8 -15 0 -20 -8 -5 3 -22 30
-50 26 -27 38 -45 31 -50 -6 -3 -9 -11 -5 -16 3 -5 10 -6 16 -3 6 4 8 3 5 -3
-3 -5 11 -27 33 -48 36 -35 46 -65 17 -49 -7 4 8 -14 32 -39 35 -36 42 -49 33
-60 -9 -11 -3 -22 27 -51 24 -23 37 -44 34 -53 -3 -9 11 -32 37 -58 26 -27 38
-45 31 -50 -15 -9 -3 -27 12 -19 7 4 9 3 4 -1 -4 -5 7 -23 24 -41 25 -26 30
-36 21 -47 -9 -10 -2 -23 33 -57 30 -29 41 -47 35 -55 -6 -8 11 -31 54 -74 41
-40 66 -59 71 -52 4 8 19 1 44 -21 64 -56 81 -68 81 -58 0 5 -8 13 -17 19 -10
5 -15 12 -12 15 3 3 15 -3 26 -14 17 -15 23 -17 32 -6 8 9 4 19 -15 37 -28 26
-54 66 -35 55 27 -17 7 14 -39 59 -38 37 -47 52 -38 62 7 9 7 17 0 26 -9 10 3
27 51 73 34 33 71 67 81 75 18 12 19 12 13 -3 -4 -13 -2 -15 10 -11 8 3 19 0
24 -8 7 -11 9 -10 9 5 0 15 14 6 60 -38 33 -32 65 -54 71 -51 6 4 21 -3 33
-14 19 -18 25 -19 34 -8 9 11 7 18 -8 32 -11 10 -18 26 -15 35 3 10 -8 29 -30
50 -19 19 -35 41 -34 49 0 12 3 10 9 -4 5 -13 9 -15 9 -5 1 22 -89 109 -106
103 -8 -3 -30 10 -52 31 -22 21 -44 34 -52 31 -9 -3 -30 11 -54 35 -27 27 -42
37 -50 30 -9 -7 -26 2 -58 30 -25 22 -51 38 -59 35 -7 -3 -31 12 -53 35 -32
33 -41 37 -54 27 -12 -10 -14 -9 -8 6 4 12 3 16 -4 11 -6 -3 -26 8 -44 26 -27
26 -37 31 -48 22 -10 -9 -22 -3 -52 28 -24 25 -45 38 -55 35 -10 -3 -31 10
-55 35 -27 27 -42 37 -50 30 -8 -7 -18 -4 -30 10 -20 22 -31 25 -40 10z m35
-56 c0 -8 -19 -13 -24 -6 -3 5 1 9 9 9 8 0 15 -2 15 -3z"/>
<path d="M9963 13293 c0 -9 4 -10 14 -2 7 6 13 12 13 14 0 1 -6 2 -13 2 -8 0
-14 -6 -14 -14z"/>
<path d="M8766 13221 c-4 -5 -2 -12 3 -15 5 -4 12 -2 15 3 4 5 2 12 -3 15 -5
4 -12 2 -15 -3z"/>
<path d="M8505 13011 c-3 -5 -2 -12 3 -15 5 -3 9 1 9 9 0 17 -3 19 -12 6z"/>
<path d="M15072 12551 c-66 -23 -124 -78 -160 -151 l-27 -55 -3 -417 -3 -418
21 0 c33 0 80 -53 80 -90 0 -48 -25 -87 -65 -100 l-35 -12 0 -82 c0 -122 -14
-116 278 -116 229 0 243 1 262 20 19 19 33 20 213 20 306 0 379 -21 431 -123
20 -39 31 -79 35 -125 6 -67 6 -67 36 -67 l30 0 0 380 0 380 -29 0 c-29 0 -30
-2 -47 -82 -21 -99 -39 -134 -83 -170 -59 -46 -101 -53 -348 -53 -132 0 -228
4 -228 9 0 5 -17 18 -37 28 -52 25 -69 63 -53 115 9 32 19 43 51 57 l39 16 0
325 0 326 298 -1 c163 -1 317 -5 342 -9 167 -30 253 -120 324 -338 3 -12 16
-18 36 -18 30 0 30 0 30 58 0 31 -5 141 -12 245 l-12 187 -502 0 -503 0 -15
53 c-49 169 -199 260 -344 208z"/>
<path d="M8799 12527 c-18 -12 -44 -38 -56 -56 l-23 -34 0 -1512 0 -1512 668
3 c367 1 1640 3 2830 3 l2162 1 -2 1513 -3 1514 -29 37 c-54 72 187 66 -2804
66 l-2709 0 -34 -23z m5394 -126 l37 -1 -2 -1417 -3 -1418 -2680 0 -2680 0 0
1415 0 1415 2535 5 c2234 4 2626 5 2793 1z"/>
<path d="M11896 11948 c-3 -7 -11 -33 -19 -58 -19 -63 -49 -73 -116 -37 l-49
27 -31 -30 -30 -31 25 -52 c35 -72 25 -97 -50 -120 l-56 -18 0 -43 0 -43 52
-14 c38 -10 56 -21 67 -41 14 -24 13 -30 -13 -78 l-28 -52 31 -32 31 -31 50
28 c45 25 53 27 77 15 18 -9 31 -28 43 -63 16 -49 17 -50 62 -53 l45 -3 14 53
c11 40 21 56 41 66 24 11 33 10 79 -14 l52 -26 29 30 30 29 -26 51 c-36 71
-26 95 49 118 l56 18 -3 45 -3 46 -52 14 c-41 11 -54 19 -63 42 -10 24 -8 34
16 78 l28 50 -24 25 c-29 31 -39 32 -91 5 -65 -33 -94 -21 -117 49 -18 56 -19
57 -60 60 -28 2 -44 -1 -46 -10z m115 -245 c40 -24 73 -94 65 -138 -18 -97
-130 -142 -214 -87 -57 37 -71 138 -25 192 14 18 36 36 47 40 35 15 96 11 127
-7z"/>
<path d="M12336 11834 c-16 -81 -16 -98 -5 -105 34 -22 59 -4 59 42 0 38 20
18 37 -38 39 -128 15 -304 -57 -413 l-29 -44 21 -23 c19 -21 23 -22 38 -8 25
23 78 132 95 195 29 110 17 271 -30 382 -6 15 -1 17 37 15 40 -2 43 0 46 25 3
22 -2 28 -20 33 -27 6 -168 35 -172 35 -1 0 -10 -43 -20 -96z"/>
<path d="M11262 11588 l-22 -22 22 -23 21 -23 -60 0 c-213 0 -434 -90 -599
-244 -69 -64 -69 -64 -50 -85 11 -11 23 -21 29 -21 5 0 40 29 78 64 138 130
309 204 499 213 l105 6 -19 -22 c-20 -22 -20 -22 2 -44 l22 -22 62 63 63 62
-60 60 c-33 33 -62 60 -65 60 -3 0 -15 -10 -28 -22z"/>
<path d="M11210 11282 c-31 -5 -37 -14 -45 -72 -8 -59 -12 -64 -64 -79 l-44
-13 -52 52 c-52 51 -53 52 -81 36 -60 -32 -58 -28 -34 -101 l22 -67 -35 -36
-36 -36 -58 18 c-32 10 -63 20 -69 23 -12 4 -54 -59 -54 -81 0 -8 21 -33 47
-57 27 -24 46 -51 45 -59 -18 -87 -17 -86 -92 -99 l-70 -13 0 -52 0 -53 66
-14 c69 -14 73 -18 92 -78 11 -32 10 -34 -41 -81 l-52 -48 22 -45 22 -45 71
21 71 20 35 -34 35 -35 -21 -68 c-12 -37 -20 -69 -18 -70 2 -1 20 -13 41 -26
l39 -23 52 52 53 53 44 -13 c52 -15 56 -20 64 -79 9 -66 15 -72 71 -68 l49 3
14 66 13 66 51 12 51 12 46 -52 46 -52 42 23 c23 13 42 29 42 36 0 7 -8 39
-18 71 l-19 60 40 33 40 33 63 -20 64 -21 26 44 26 44 -52 48 -52 47 14 50 14
50 67 14 67 14 0 52 0 52 -67 14 -67 14 -14 50 -14 50 51 47 52 47 -17 33
c-29 58 -29 58 -99 35 l-64 -21 -38 35 -39 35 18 60 c10 32 18 65 18 71 0 7
-19 22 -42 34 l-42 21 -46 -51 -45 -52 -51 12 -52 12 -13 65 c-15 70 -30 83
-89 74z m161 -331 c74 -35 125 -85 161 -159 29 -59 33 -76 33 -147 0 -71 -4
-88 -33 -147 -56 -115 -152 -178 -282 -186 -108 -6 -176 21 -256 102 -73 74
-98 136 -97 236 2 140 78 251 211 307 74 31 192 28 263 -6z"/>
<path d="M12212 11108 c-6 -8 -16 -26 -21 -41 -15 -39 -57 -53 -100 -32 -33
16 -35 16 -60 -9 -25 -25 -25 -26 -8 -61 15 -32 16 -39 2 -65 -9 -17 -28 -33
-50 -40 -34 -11 -36 -14 -33 -48 3 -32 7 -38 36 -46 20 -6 39 -20 47 -37 13
-24 13 -32 -1 -65 -15 -36 -15 -38 10 -62 25 -26 26 -26 61 -9 32 15 39 15 64
3 17 -9 31 -28 37 -48 9 -30 13 -33 49 -33 36 0 40 3 49 33 6 21 20 39 38 48
25 13 31 13 59 -2 26 -13 36 -14 55 -3 32 17 38 42 20 78 -22 41 -5 75 45 95
35 14 39 20 39 50 0 31 -4 36 -35 46 -22 7 -41 23 -50 40 -14 26 -13 33 2 65
17 35 17 36 -9 61 -25 25 -26 26 -58 9 -43 -22 -83 -6 -107 44 -19 39 -60 54
-81 29z m95 -213 c13 -9 28 -33 34 -54 9 -31 8 -43 -5 -69 -16 -32 -61 -62
-91 -62 -30 0 -75 30 -90 61 -34 65 14 139 89 139 23 0 51 -7 63 -15z"/>
<path d="M25382 12329 c-159 -19 -371 -108 -508 -212 -283 -217 -443 -555
-444 -938 0 -408 158 -755 445 -974 86 -66 219 -136 308 -164 166 -51 361 -64
535 -36 400 65 731 369 856 786 46 154 51 196 51 394 -1 173 -3 199 -27 291
-67 251 -157 414 -314 568 -239 234 -537 328 -902 285z m338 -136 c79 -22 137
-50 200 -97 72 -52 104 -87 155 -166 107 -167 163 -401 169 -705 5 -247 -14
-413 -65 -580 -81 -263 -214 -416 -425 -491 -73 -27 -90 -29 -224 -29 -158 0
-190 8 -305 68 -86 46 -200 164 -252 263 -99 188 -150 408 -158 684 -12 443
114 802 338 967 64 47 174 92 250 103 82 11 248 2 317 -17z"/>
<path d="M8295 12290 c-13 -14 -22 -17 -29 -10 -7 7 -17 3 -33 -12 -18 -17
-25 -19 -37 -9 -10 9 -16 9 -21 1 -5 -8 -11 -8 -19 -1 -10 8 -18 5 -31 -9 -10
-12 -25 -18 -32 -15 -8 2 -25 -2 -38 -11 -16 -10 -25 -12 -30 -4 -5 8 -11 8
-20 0 -7 -6 -19 -8 -26 -5 -8 3 -27 -7 -43 -22 -20 -18 -28 -21 -23 -10 3 9 2
17 -3 17 -6 0 -10 -4 -10 -10 0 -5 -7 -10 -15 -10 -8 0 -15 -6 -15 -12 0 -7
-5 -5 -11 5 -8 14 -14 16 -24 7 -8 -7 -19 -9 -25 -5 -6 4 -22 -3 -35 -15 -15
-14 -25 -18 -30 -10 -5 8 -10 8 -20 0 -10 -8 -15 -8 -20 0 -5 8 -14 5 -29 -8
-27 -25 -47 -36 -45 -25 4 21 -3 22 -23 4 -15 -14 -25 -18 -33 -11 -8 7 -18 4
-30 -10 -11 -12 -25 -18 -36 -15 -9 3 -20 1 -24 -5 -5 -8 -10 -8 -20 0 -9 8
-21 4 -44 -16 -25 -21 -29 -29 -20 -41 8 -9 15 -11 23 -3 7 7 17 3 32 -11 16
-15 24 -17 29 -8 5 7 4 10 -2 6 -5 -3 -10 0 -10 8 0 11 7 9 28 -6 19 -13 30
-16 34 -8 5 7 15 3 30 -11 15 -15 25 -18 30 -10 5 8 11 8 21 -1 8 -6 14 -8 14
-3 0 5 4 3 9 -5 11 -17 58 -24 67 -10 4 6 16 2 29 -11 13 -12 29 -19 35 -15 6
4 20 -1 30 -10 10 -9 24 -14 30 -10 6 4 22 -3 36 -16 13 -12 24 -17 24 -11 0
9 60 11 80 2 3 -1 8 -2 13 -1 4 0 6 -2 6 -6 -3 -20 2 -27 11 -13 8 12 13 11
33 -8 17 -16 26 -19 35 -10 8 8 15 8 25 0 10 -9 17 -8 27 1 10 10 12 9 7 -6
-4 -11 -3 -16 4 -12 5 4 16 2 24 -5 10 -8 15 -8 20 0 5 8 15 4 30 -10 13 -12
29 -19 35 -15 6 4 20 -1 30 -10 16 -14 23 -15 34 -6 9 7 17 8 20 2 8 -13 79
-6 84 8 2 6 8 11 13 11 6 0 7 -5 3 -12 -8 -13 12 -3 39 20 15 14 17 13 18 -4
0 -18 1 -18 9 1 5 12 9 14 9 6 1 -11 5 -10 20 3 13 12 21 14 26 6 5 -8 12 -7
24 4 10 9 21 13 26 9 4 -5 2 2 -4 15 -9 17 -16 21 -25 13 -9 -8 -18 -5 -33 8
-14 13 -31 18 -60 15 -28 -2 -45 2 -53 12 -7 8 -20 12 -30 9 -35 -11 -90 91
-58 111 5 3 5 11 -2 19 -8 10 -8 15 0 20 8 5 7 11 -1 22 -10 12 -5 22 29 56
32 32 44 39 54 29 9 -9 16 -8 31 5 11 11 37 18 63 19 30 1 49 7 58 19 10 14
15 15 21 5 5 -8 4 -11 -2 -7 -5 3 -10 0 -10 -8 0 -11 5 -10 24 2 l24 16 -22
23 c-18 20 -25 22 -37 11 -12 -9 -16 -9 -20 1 -3 9 -8 10 -17 2 -9 -7 -19 -4
-38 10 -17 13 -28 17 -32 10 -5 -8 -14 -5 -27 7 -21 19 -75 27 -84 11 -3 -5
-11 -5 -18 1 -10 8 -18 5 -31 -9z m-598 -155 c0 -8 -4 -12 -9 -9 -5 3 -6 10
-3 15 9 13 12 11 12 -6z"/>
<path d="M16687 12283 c-4 -3 -7 -17 -7 -30 0 -21 5 -23 45 -23 106 0 208 -39
239 -91 33 -56 37 -191 34 -1042 l-3 -832 -23 -46 c-25 -51 -74 -84 -138 -94
-21 -4 -48 -8 -59 -10 -11 -2 -37 -4 -57 -4 -35 -1 -38 -3 -38 -31 0 -17 5
-30 13 -31 6 0 221 0 477 0 l465 2 3 29 c3 28 1 30 -34 30 -59 0 -167 21 -194
39 -14 8 -33 24 -42 34 -43 47 -43 50 -43 982 0 837 1 893 18 937 32 83 87
113 225 125 71 6 72 6 72 34 l0 29 -473 0 c-261 0 -477 -3 -480 -7z"/>
<path d="M17794 12275 c-12 -30 5 -40 86 -58 130 -27 235 -88 338 -196 23 -25
89 -111 145 -191 105 -147 448 -645 461 -668 6 -11 -9 -33 -86 -127 -12 -14
-301 -377 -312 -392 -1 -1 -20 4 -41 12 -22 8 -53 14 -69 15 l-29 0 42 -45
c44 -48 44 -56 4 -100 -10 -11 -42 -50 -70 -86 -135 -170 -288 -279 -453 -319
-58 -15 -65 -19 -65 -41 l0 -24 360 -3 c200 -1 363 -6 368 -11 6 -6 17 -6 26
-1 9 5 24 11 34 14 22 7 22 42 0 54 -14 8 -15 17 -5 68 23 121 25 187 7 277
-15 74 -15 90 -4 107 45 64 356 459 365 463 25 11 447 -646 485 -754 27 -79
-23 -133 -143 -153 -67 -11 -73 -14 -73 -37 l0 -24 480 0 480 0 3 25 c3 24 -1
27 -56 38 -118 24 -219 96 -327 232 -45 57 -531 772 -609 896 l-29 46 23 31
c22 30 104 133 422 532 208 262 298 335 448 365 76 15 84 21 75 49 -6 21 -7
21 -398 19 l-392 -3 -3 -26 c-3 -25 0 -26 50 -33 80 -9 124 -24 158 -52 46
-40 42 -81 -22 -187 -92 -154 -427 -571 -450 -561 -30 12 -311 431 -372 554
-51 102 -56 135 -25 174 28 35 61 51 142 66 64 13 67 15 67 42 l0 28 -515 0
c-449 0 -516 -2 -521 -15z m665 -1899 c20 -66 38 -223 28 -249 -9 -24 -82 -1
-123 38 -39 37 -44 72 -18 133 13 33 83 142 90 142 2 0 12 -29 23 -64z"/>
<path d="M20228 12278 c-12 -35 3 -48 56 -48 60 0 147 -22 183 -45 13 -9 35
-38 46 -63 l22 -47 0 -910 0 -910 -25 -44 c-34 -61 -72 -81 -184 -94 -70 -8
-96 -15 -99 -27 -10 -40 -14 -40 479 -40 l474 0 0 29 c0 28 -1 28 -72 34 -96
9 -141 22 -178 54 -63 53 -64 58 -68 492 -2 275 0 396 8 401 5 3 34 3 63 -1
28 -4 116 -8 195 -8 451 -3 709 138 782 425 27 104 27 273 1 366 -59 216 -255
365 -557 424 -75 14 -170 18 -605 21 -424 4 -518 2 -521 -9z m971 -133 c164
-43 283 -162 331 -332 25 -86 27 -245 4 -324 -39 -133 -130 -245 -241 -297
-56 -26 -65 -27 -218 -27 -88 1 -172 4 -187 8 l-28 7 0 471 c0 430 1 470 17
476 83 32 238 41 322 18z"/>
<path d="M22114 12276 c-12 -32 3 -46 53 -46 65 0 160 -24 191 -47 14 -11 35
-37 46 -59 21 -39 21 -48 21 -939 0 -495 -4 -917 -8 -937 -4 -21 -22 -53 -40
-72 -36 -38 -82 -54 -179 -62 -83 -7 -90 -10 -86 -36 l3 -23 479 0 c434 0 479
2 481 16 5 29 -9 36 -81 43 -127 12 -179 36 -216 100 -23 41 -23 42 -26 458
l-3 417 114 0 c62 -1 118 -4 123 -7 6 -4 75 -97 155 -207 80 -110 173 -238
207 -285 34 -47 132 -183 218 -302 86 -120 163 -223 171 -230 18 -14 567 -20
596 -6 16 8 25 57 10 59 -5 0 -17 2 -28 4 -11 2 -39 7 -63 10 -56 8 -172 56
-225 92 -92 63 -179 169 -438 532 -145 204 -265 375 -267 380 -2 5 23 17 55
25 216 61 358 163 427 309 101 212 67 468 -81 615 -92 92 -191 139 -388 185
-84 19 -126 21 -653 25 -505 3 -563 2 -568 -12z m1033 -130 c82 -22 140 -54
202 -112 101 -93 149 -236 136 -399 -21 -274 -275 -438 -665 -431 l-65 1 -3
466 -2 466 62 10 c96 16 275 15 335 -1z"/>
<path d="M8033 12235 c0 -8 4 -12 9 -9 5 3 6 10 3 15 -9 13 -12 11 -12 -6z"/>
<path d="M7664 11699 c-34 -36 -85 -74 -83 -62 4 25 -5 21 -47 -20 -25 -25
-43 -50 -40 -56 4 -5 1 -13 -5 -17 -8 -4 -9 -3 -5 4 11 18 -10 14 -24 -3 -7
-9 -32 -30 -54 -47 -32 -25 -37 -27 -21 -8 l20 24 -30 -21 c-48 -34 -108 -100
-101 -112 4 -6 1 -9 -6 -6 -20 8 -79 -58 -83 -91 -2 -19 4 -35 16 -47 11 -10
17 -23 13 -28 -8 -13 26 -50 38 -43 5 3 20 -4 33 -16 15 -14 25 -18 30 -10 5
8 11 8 19 1 9 -8 13 -7 13 4 0 8 -5 11 -11 8 -7 -3 -6 -1 1 7 9 10 16 8 34 -9
l23 -21 24 23 c21 18 24 19 19 4 -5 -14 -3 -16 12 -8 10 6 22 7 26 3 5 -4 5
-1 0 7 -6 11 -3 13 14 8 18 -4 21 -2 16 11 -4 12 0 10 18 -6 16 -16 26 -19 34
-11 8 8 13 7 18 -1 5 -8 12 -6 26 6 21 19 56 24 81 12 10 -5 18 -3 21 5 3 9 7
9 19 -1 12 -9 18 -10 23 -2 4 6 14 9 22 6 8 -3 24 -1 35 5 15 8 19 8 14 0 -9
-14 0 -14 24 -1 13 7 21 7 26 -2 5 -7 3 -8 -6 -3 -9 5 -11 4 -6 -4 11 -16 29
-2 21 17 -3 9 -3 13 1 10 10 -11 45 12 38 24 -4 6 -3 8 3 5 6 -4 16 -1 22 7
15 18 23 58 10 51 -5 -4 -6 -11 -3 -17 5 -7 2 -8 -5 -3 -9 5 -1 19 27 49 31
31 40 47 37 69 -2 15 0 25 5 22 9 -6 71 61 63 69 -3 3 -13 0 -22 -6 -9 -7 -5
1 9 17 14 16 33 36 43 43 22 17 22 29 -2 42 -14 7 -22 7 -27 -2 -4 -6 -3 -8 3
-5 6 4 17 -1 24 -11 13 -15 12 -16 -3 -3 -10 7 -18 10 -18 5 0 -4 -5 -3 -12 4
-8 8 -8 15 1 25 9 11 8 17 -4 27 -12 10 -16 9 -21 -3 -3 -9 -12 -18 -20 -21
-9 -3 -12 -1 -9 4 3 6 1 10 -4 10 -6 0 -11 -5 -11 -11 0 -7 -9 0 -21 15 -11
14 -28 25 -37 24 -10 -2 -16 3 -14 10 1 8 -2 11 -8 7 -6 -4 -18 -1 -27 7 -13
10 -17 10 -20 0 -3 -6 -9 -9 -14 -6 -6 3 -5 12 3 21 12 15 11 15 -9 3 -18 -12
-20 -17 -10 -30 11 -13 10 -13 -7 0 -11 8 -21 14 -23 13 -1 -2 -2 0 0 5 1 4 5
6 10 5 13 -5 8 14 -8 27 -12 10 -18 10 -29 1 -10 -9 -16 -9 -21 -1 -5 8 -12 7
-23 -3 -27 -23 -54 -18 -49 10 2 13 3 23 2 23 0 0 -14 -14 -31 -31z m53 -46
c0 -8 -4 -10 -12 -3 -7 5 -16 6 -20 2 -5 -4 -5 -2 -2 4 9 15 34 13 34 -3z
m-94 -45 c-8 -13 -9 -18 -12 -39 0 -5 -6 -7 -12 -3 -8 4 -7 9 2 15 8 5 10 9 5
9 -5 0 -3 7 4 15 15 18 24 20 13 3z m-76 -13 c0 -8 -4 -12 -9 -9 -5 3 -6 10
-3 15 9 13 12 11 12 -6z m-40 -63 c-10 -10 -14 -22 -10 -25 3 -4 4 -7 1 -7 -3
0 -12 8 -19 17 -8 9 -9 14 -3 10 7 -4 17 0 24 8 7 8 15 15 18 15 3 0 -2 -8
-11 -18z m519 -57 c-1 -8 -5 -17 -8 -21 -5 -4 -4 16 1 34 3 9 9 -1 7 -13z
m-682 -33 c3 -5 -1 -9 -9 -9 -8 0 -12 4 -9 9 3 4 7 8 9 8 2 0 6 -4 9 -8z m650
-83 c-3 -5 -10 -7 -15 -3 -5 3 -7 10 -3 15 3 5 10 7 15 3 5 -3 7 -10 3 -15z
m-721 -29 c3 -11 2 -22 -2 -24 -4 -3 -8 6 -9 20 -2 29 4 31 11 4z m-72 -33
c-10 -9 -11 -8 -5 6 3 10 9 15 12 12 3 -3 0 -11 -7 -18z m733 -35 c3 -5 -1 -9
-9 -9 -8 0 -12 4 -9 9 3 4 7 8 9 8 2 0 6 -4 9 -8z m-98 -24 c4 -7 3 -8 -4 -4
-7 4 -12 2 -12 -5 0 -7 -3 -10 -6 -6 -6 5 3 27 11 27 2 0 7 -5 11 -12z m-438
-93 c-3 -3 -9 2 -12 12 -6 14 -5 15 5 6 7 -7 10 -15 7 -18z"/>
<path d="M7980 11630 c0 -13 18 -22 24 -11 3 5 -1 11 -9 15 -8 3 -15 1 -15 -4z"/>
<path d="M15070 10466 l0 -574 -43 -74 -44 -73 41 -185 41 -185 87 -3 86 -3
20 88 c11 48 30 133 42 188 l22 100 -41 71 -41 71 0 577 0 576 -85 0 -85 0 0
-574z"/>
<path d="M18680 10404 c0 -250 -119 -556 -283 -732 -57 -61 -50 -60 33 4 296
225 412 557 271 777 l-21 32 0 -81z"/>
<path d="M18672 9701 c-124 -157 -291 -301 -446 -386 -187 -102 -370 -140
-636 -132 -238 7 -377 34 -839 163 -573 159 -725 188 -1016 188 -163 1 -231
-3 -307 -17 l-97 -19 -14 -61 -13 -62 155 -12 c294 -23 509 -66 1044 -207 344
-91 538 -135 707 -160 640 -94 1078 96 1428 622 69 104 105 162 100 162 -3 0
-32 -35 -66 -79z"/>
<path d="M10583 8917 c-3 -5 -2 -11 2 -15 11 -12 1903 -8 1914 3 7 7 -257 9
-792 7 -441 -1 -873 1 -960 5 -88 4 -161 4 -164 0z"/>
</g>
</svg>
